PathFileType	4	(X/Y/Z)	E:\Qualisys_Data\Carbon_Farble_Plate\Data\Amateur_Runner\S1\T1\S1T1V21_c3d.trc
DataRate	CameraRate	NumFrames	NumMarkers	Units	OrigDataRate	OrigDataStartFrame	OrigNumFrames
200.000000	200.000000	4	39	mm	200.000000	212	283
Frame#	Time	LSHO			RSHO			LICST			RICST			LASIS			LHEEL			RASIS			LTROC			RTROC			SACR			LTH1			LSK4			LTH2			LTH3			RHM5			LSK2			LTH4			RTH1			LTOE			RTH2			RTH3			RTH4			LLEP			RLEP			LSK1			LSK3			RSK1			LHM5			RSK2			LFT1			RSK3			RSK4			LLME			RLME			RTOE			RHEEL			RFT1			RFT2			LFT2			
		X1	Y1	Z1	X2	Y2	Z2	X3	Y3	Z3	X4	Y4	Z4	X5	Y5	Z5	X6	Y6	Z6	X7	Y7	Z7	X8	Y8	Z8	X9	Y9	Z9	X10	Y10	Z10	X11	Y11	Z11	X12	Y12	Z12	X13	Y13	Z13	X14	Y14	Z14	X15	Y15	Z15	X16	Y16	Z16	X17	Y17	Z17	X18	Y18	Z18	X19	Y19	Z19	X20	Y20	Z20	X21	Y21	Z21	X22	Y22	Z22	X23	Y23	Z23	X24	Y24	Z24	X25	Y25	Z25	X26	Y26	Z26	X27	Y27	Z27	X28	Y28	Z28	X29	Y29	Z29	X30	Y30	Z30	X31	Y31	Z31	X32	Y32	Z32	X33	Y33	Z33	X34	Y34	Z34	X35	Y35	Z35	X36	Y36	Z36	X37	Y37	Z37	X38	Y38	Z38	X39	Y39	Z39	

213	1.06	1529.678466796875	1474.381713867188	-616.7471313476562	1573.474975585938	1488.210571289062	-296.536865234375	1507.552734375	1022.888366699219	-557.1539306640625	1529.463256835938	1029.793212890625	-259.6619262695312	1556.786010742188	985.6074829101562	-535.1647338867188	1595.12451171875	68.12799072265625	-442.350341796875	1563.833374023438	978.8532104492188	-272.2838745117188	1453.490112304688	898.2408447265625	-575.7147827148438	1445.756469726562	900.5548095703125	-230.9301452636719	1401.845336914062	1044.255737304688	-397.0676574707031	1617.630737304688	778.4761352539062	-557.3651733398438	1587.235595703125	216.9910583496094	-480.6281433105469	1540.89013671875	746.8074340820312	-579.6907348632812	1647.108276367188	681.4392700195312	-539.1102294921875	971.9405517578124	293.7109680175781	-263.1970520019531	1586.231079101562	312.9047241210938	-522.9008178710938	1567.394897460938	653.6101684570312	-551.1995239257812	1545.595458984375	750.313720703125	-265.0570373535156	1846.436279296875	103.4786758422852	-460.25927734375	1472.41552734375	759.86181640625	-236.5378265380859	1529.465576171875	650.55517578125	-270.7785949707031	1451.996948242188	662.8300170898438	-251.3135070800781	1641.931640625	522.4016723632812	-513.7383422851562	1434.60791015625	495.2892761230469	-283.8400268554688	1670.842651367188	311.359619140625	-510.7793884277344	1664.943603515625	210.7926177978516	-502.0787658691406	1256.5263671875	443.4736633300781	-269.9850463867188	1783.182250976562	70.42115783691406	-511.7943420410156	1239.487548828125	522.2684936523438	-287.3464050292969	1611.43701171875	46.31225204467773	-413.3355102539062	1159.568115234375	419.3795471191406	-282.8614501953125	1144.296875	495.164794921875	-309.0713195800781	1641.7265625	90.92015838623048	-492.6764221191406	1027.9990234375	426.2770080566406	-286.139892578125	1005.051879882812	225.4801483154297	-334.3078308105469	984.3218383789062	479.4876403808594	-334.2245483398438	958.1981201171876	463.6411743164062	-366.2739562988281	958.674072265625	473.1699523925781	-308.5757446289062	1603.320678710938	39.95178604125977	-466.7278442382812
214	1.065	1551.738403320312	1468.986694335938	-618.0791625976562	1592.995361328125	1483.892578125	-297.0209655761719	1524.401977539062	1019.586303710938	-558.2098388671875	1549.130737304688	1025.217651367188	-259.5100402832031	1570.7060546875	981.9088134765624	-537.5740966796875	1598.2490234375	68.49716186523438	-443.1971740722656	1583.379028320312	974.6351928710938	-272.9013061523438	1471.87646484375	893.8685302734375	-575.9653930664062	1466.500610351562	895.233154296875	-231.5334167480469	1421.108032226562	1039.879028320312	-397.0184631347656	1636.70654296875	775.24462890625	-557.4973754882812	1596.322998046875	215.7895812988281	-479.572265625	1560.442504882812	742.930419921875	-579.62548828125	1667.3955078125	678.0361938476562	-539.173828125	1001.323974609375	297.1324157714844	-262.2958374023438	1600.064331054688	311.3749694824219	-521.7566528320312	1587.6806640625	649.5591430664062	-550.7515869140625	1569.158325195312	746.6713256835938	-264.6706237792969	1852.05322265625	92.08402252197266	-458.925537109375	1495.63671875	755.09228515625	-236.4126434326172	1555.3994140625	646.274658203125	-269.5166015625	1477.358032226562	657.21533203125	-251.3263397216797	1661.81689453125	518.3240966796875	-514.3773803710938	1464.622192382812	490.0859375	-282.9961547851562	1683.8583984375	306.7060241699219	-510.5146484375	1673.946044921875	206.2666778564453	-501.4087524414062	1287.0888671875	441.9783935546875	-269.0445251464844	1787.138061523438	63.508056640625	-511.7236022949219	1271.576171875	520.0697631835938	-287.955322265625	1613.141479492188	46.14092254638672	-413.8799743652344	1190.263549804688	418.9268798828125	-283.1368713378906	1175.838134765625	494.8878479003906	-309.2344970703125	1644.826782226562	89.76010131835938	-493.5849304199219	1058.4130859375	428.9824523925781	-286.5570068359375	1034.711181640625	228.0696716308594	-332.7027893066406	1015.018615722656	482.1916809082031	-334.9552307128906	989.0943603515624	466.276611328125	-367.0965576171875	989.3121337890624	475.7981262207031	-309.3673706054688	1605.498046875	40.14751052856445	-467.0507202148438
215	1.07	1573.9990234375	1463.658935546875	-619.3553466796875	1612.7314453125	1479.215454101562	-297.0167236328125	1544.114501953125	1015.670227050781	-558.0724487304688	1568.974365234375	1020.416748046875	-259.3113098144531	1590.072265625	977.5790405273438	-537.8799438476562	1602.901123046875	70.91085815429688	-443.0968933105469	1603.156005859375	970.0709228515624	-273.3982543945312	1490.34716796875	889.536376953125	-576.35498046875	1486.88818359375	889.8995361328125	-232.3270111083984	1439.928588867188	1035.666259765625	-396.5473937988281	1655.30419921875	771.4973754882812	-557.5597534179688	1606.02685546875	215.9663543701172	-479.8648071289062	1579.43701171875	739.2615356445312	-580.3076171875	1686.395629882812	674.190185546875	-540.6781616210938	1031.7060546875	299.7448120117188	-261.7624206542969	1614.3349609375	310.9666137695312	-520.9210205078125	1606.68603515625	645.61328125	-551.9290771484375	1593.019653320312	743.2861938476562	-264.40625	1856.980834960938	82.4984359741211	-455.7641906738281	1518.937255859375	749.5579223632812	-236.93798828125	1582.016479492188	642.3451538085938	-268.888427734375	1503.391235351562	651.6698608398438	-250.8848876953125	1682.371704101562	514.9722290039062	-514.9998168945312	1495.415771484375	485.1828918457031	-282.449462890625	1697.411743164062	302.9676818847656	-511.0310974121094	1682.07373046875	203.2242126464844	-501.1799926757812	1318.564331054688	440.0621337890625	-268.2772521972656	1791.6484375	61.22729110717773	-511.3142700195312	1304.28076171875	518.2695922851562	-287.8739929199219	1615.159057617188	47.02192306518555	-413.83984375	1221.068481445312	418.5007629394531	-282.9672546386719	1208.046630859375	494.489990234375	-309.2879638671875	1649.150634765625	89.47057342529297	-493.6796875	1089.3037109375	430.6699523925781	-286.6273803710938	1065.222534179688	229.8104400634766	-331.3522338867188	1046.333129882812	483.9990844726562	-335.6949462890625	1020.597595214844	467.8002624511719	-367.5462646484375	1020.712890625	478.399169921875	-310.302734375	1607.59814453125	41.39721298217773	-467.6617736816406
216	1.075	1595.965942382812	1458.54833984375	-620.6640625	1631.440551757812	1474.92138671875	-296.6596374511719	1561.693481445312	1011.339294433594	-558.417724609375	1587.7587890625	1016.634521484375	-259.609375	1608.390380859375	973.0848999023438	-537.8160400390625	1605.88818359375	72.96240997314453	-443.07958984375	1622.637084960938	965.865234375	-273.9442138671875	1508.254272460938	885.130615234375	-577.1405029296875	1507.333129882812	884.3477172851562	-233.1498107910156	1458.062133789062	1031.474365234375	-396.8135986328125	1673.516357421875	767.791259765625	-557.9838256835938	1616.038452148438	217.3906860351562	-480.5334167480469	1597.859130859375	736.9141235351562	-581.9970092773438	1704.856079101562	670.5136108398438	-542.8330688476562	1062.912109375	301.7590637207031	-260.6299743652344	1627.445922851562	311.9763793945312	-521.8380737304688	1624.63037109375	642.609130859375	-554.2506103515625	1617.076416015625	739.8521728515625	-264.207275390625	1860.885131835938	77.227783203125	-453.3994140625	1542.504028320312	744.7899169921875	-236.6680450439453	1608.587524414062	638.5147705078125	-267.822265625	1529.602172851562	646.2308349609375	-250.4589996337891	1703.63671875	512.1698608398438	-515.3327026367188	1526.32470703125	480.6710510253906	-281.8063049316406	1710.961791992188	300.9499206542969	-511.3147583007812	1691.786254882812	201.7802734375	-501.2322692871094	1349.980102539062	437.7204284667969	-268.0230407714844	1796.139038085938	59.60242462158203	-509.989013671875	1337.45703125	516.0349731445312	-288.136962890625	1616.688598632812	48.29828643798828	-414.3656311035156	1252.657348632812	417.7394714355469	-282.6205444335938	1241.028442382812	493.6610107421875	-309.0754699707031	1654.515625	89.05367279052734	-493.0259094238281	1121.26904296875	432.1673278808594	-286.1966247558594	1097.057983398438	231.2690277099609	-329.6649475097656	1078.248291015625	485.4263000488281	-336.2481994628906	1052.550415039062	469.1745300292969	-368.6519775390625	1052.405029296875	479.7058410644531	-310.8935852050781	1609.351440429688	43.03819274902344	-467.5308837890625
